<mxfile host="app.diagrams.net" agent="Mozilla/5.0 (Windows NT 10.0; Win64; x64) AppleWebKit/537.36 (KHTML, like Gecko) Chrome/122.0.0.0 Safari/537.36" version="26.1.0">
  <diagram name="Página-1" id="K_3_kPqM9-EC1Q4yeqjr">
    <mxGraphModel dx="819" dy="441" grid="1" gridSize="10" guides="1" tooltips="1" connect="1" arrows="1" fold="1" page="1" pageScale="1" pageWidth="827" pageHeight="1169" math="0" shadow="0">
      <root>
        <mxCell id="0" />
        <mxCell id="1" parent="0" />
        <mxCell id="VoOmi2Fw2u_qr_bo04nq-48" value="Médico" style="rounded=1;arcSize=10;whiteSpace=wrap;html=1;align=center;fontFamily=Lucida Console;" vertex="1" parent="1">
          <mxGeometry x="100" y="250" width="80" height="40" as="geometry" />
        </mxCell>
        <mxCell id="VoOmi2Fw2u_qr_bo04nq-54" value="CRN" style="text;strokeColor=none;fillColor=none;spacingLeft=4;spacingRight=4;overflow=hidden;rotatable=0;points=[[0,0.5],[1,0.5]];portConstraint=eastwest;fontSize=12;whiteSpace=wrap;html=1;fontFamily=Lucida Console;" vertex="1" parent="1">
          <mxGeometry x="40" y="200" width="40" height="30" as="geometry" />
        </mxCell>
        <mxCell id="VoOmi2Fw2u_qr_bo04nq-58" value="Nome" style="text;strokeColor=none;fillColor=none;spacingLeft=4;spacingRight=4;overflow=hidden;rotatable=0;points=[[0,0.5],[1,0.5]];portConstraint=eastwest;fontSize=12;whiteSpace=wrap;html=1;fontFamily=Lucida Console;" vertex="1" parent="1">
          <mxGeometry x="70" y="200" width="40" height="30" as="geometry" />
        </mxCell>
        <mxCell id="VoOmi2Fw2u_qr_bo04nq-61" value="Data Nasc" style="text;strokeColor=none;fillColor=none;spacingLeft=4;spacingRight=4;overflow=hidden;rotatable=0;points=[[0,0.5],[1,0.5]];portConstraint=eastwest;fontSize=12;whiteSpace=wrap;html=1;fontFamily=Lucida Console;" vertex="1" parent="1">
          <mxGeometry x="110" y="190" width="40" height="40" as="geometry" />
        </mxCell>
        <mxCell id="VoOmi2Fw2u_qr_bo04nq-63" value="Horario" style="text;strokeColor=none;fillColor=none;spacingLeft=4;spacingRight=4;overflow=hidden;rotatable=0;points=[[0,0.5],[1,0.5]];portConstraint=eastwest;fontSize=12;whiteSpace=wrap;html=1;" vertex="1" parent="1">
          <mxGeometry x="150" y="200" width="50" height="30" as="geometry" />
        </mxCell>
        <mxCell id="VoOmi2Fw2u_qr_bo04nq-65" value="Salário" style="text;strokeColor=none;fillColor=none;spacingLeft=4;spacingRight=4;overflow=hidden;rotatable=0;points=[[0,0.5],[1,0.5]];portConstraint=eastwest;fontSize=12;whiteSpace=wrap;html=1;" vertex="1" parent="1">
          <mxGeometry x="200" y="200" width="50" height="30" as="geometry" />
        </mxCell>
        <mxCell id="VoOmi2Fw2u_qr_bo04nq-66" value="" style="endArrow=oval;html=1;rounded=0;endFill=1;exitX=0.125;exitY=0;exitDx=0;exitDy=0;exitPerimeter=0;" edge="1" parent="1" source="VoOmi2Fw2u_qr_bo04nq-48" target="VoOmi2Fw2u_qr_bo04nq-54">
          <mxGeometry relative="1" as="geometry">
            <mxPoint x="60" y="270" as="sourcePoint" />
            <mxPoint x="490" y="240" as="targetPoint" />
          </mxGeometry>
        </mxCell>
        <mxCell id="VoOmi2Fw2u_qr_bo04nq-67" value="" style="endArrow=box;html=1;rounded=0;endFill=0;exitX=0.233;exitY=0.011;exitDx=0;exitDy=0;exitPerimeter=0;" edge="1" parent="1" source="VoOmi2Fw2u_qr_bo04nq-48" target="VoOmi2Fw2u_qr_bo04nq-58">
          <mxGeometry relative="1" as="geometry">
            <mxPoint x="90" y="240" as="sourcePoint" />
            <mxPoint x="250" y="330" as="targetPoint" />
          </mxGeometry>
        </mxCell>
        <mxCell id="VoOmi2Fw2u_qr_bo04nq-68" value="" style="endArrow=oval;html=1;rounded=0;exitX=0.432;exitY=-0.032;exitDx=0;exitDy=0;exitPerimeter=0;endFill=0;" edge="1" parent="1" source="VoOmi2Fw2u_qr_bo04nq-48" target="VoOmi2Fw2u_qr_bo04nq-61">
          <mxGeometry relative="1" as="geometry">
            <mxPoint x="260" y="240" as="sourcePoint" />
            <mxPoint x="420" y="240" as="targetPoint" />
          </mxGeometry>
        </mxCell>
        <mxCell id="VoOmi2Fw2u_qr_bo04nq-71" value="" style="endArrow=oval;html=1;rounded=0;exitX=0.65;exitY=-0.046;exitDx=0;exitDy=0;exitPerimeter=0;endFill=0;" edge="1" parent="1" source="VoOmi2Fw2u_qr_bo04nq-48" target="VoOmi2Fw2u_qr_bo04nq-63">
          <mxGeometry relative="1" as="geometry">
            <mxPoint x="300" y="280" as="sourcePoint" />
            <mxPoint x="460" y="280" as="targetPoint" />
          </mxGeometry>
        </mxCell>
        <mxCell id="VoOmi2Fw2u_qr_bo04nq-73" value="" style="endArrow=oval;html=1;rounded=0;exitX=0.878;exitY=-0.018;exitDx=0;exitDy=0;exitPerimeter=0;endFill=0;" edge="1" parent="1" source="VoOmi2Fw2u_qr_bo04nq-48" target="VoOmi2Fw2u_qr_bo04nq-65">
          <mxGeometry relative="1" as="geometry">
            <mxPoint x="260" y="240" as="sourcePoint" />
            <mxPoint x="420" y="240" as="targetPoint" />
          </mxGeometry>
        </mxCell>
        <mxCell id="VoOmi2Fw2u_qr_bo04nq-74" value="Paciente" style="rounded=1;arcSize=10;whiteSpace=wrap;html=1;align=center;" vertex="1" parent="1">
          <mxGeometry x="265" y="280" width="100" height="40" as="geometry" />
        </mxCell>
        <mxCell id="VoOmi2Fw2u_qr_bo04nq-75" value="Nome" style="text;strokeColor=none;fillColor=none;spacingLeft=4;spacingRight=4;overflow=hidden;rotatable=0;points=[[0,0.5],[1,0.5]];portConstraint=eastwest;fontSize=12;whiteSpace=wrap;html=1;" vertex="1" parent="1">
          <mxGeometry x="280" y="220" width="50" height="30" as="geometry" />
        </mxCell>
        <mxCell id="VoOmi2Fw2u_qr_bo04nq-77" value="CPF" style="text;strokeColor=none;fillColor=none;spacingLeft=4;spacingRight=4;overflow=hidden;rotatable=0;points=[[0,0.5],[1,0.5]];portConstraint=eastwest;fontSize=12;whiteSpace=wrap;html=1;" vertex="1" parent="1">
          <mxGeometry x="250" y="220" width="40" height="30" as="geometry" />
        </mxCell>
        <mxCell id="VoOmi2Fw2u_qr_bo04nq-78" value="" style="endArrow=oval;html=1;rounded=0;exitX=0.116;exitY=-0.018;exitDx=0;exitDy=0;exitPerimeter=0;endFill=1;" edge="1" parent="1" source="VoOmi2Fw2u_qr_bo04nq-74" target="VoOmi2Fw2u_qr_bo04nq-77">
          <mxGeometry relative="1" as="geometry">
            <mxPoint x="260" y="350" as="sourcePoint" />
            <mxPoint x="420" y="350" as="targetPoint" />
          </mxGeometry>
        </mxCell>
        <mxCell id="VoOmi2Fw2u_qr_bo04nq-79" value="" style="endArrow=box;html=1;rounded=0;exitX=0.44;exitY=0.032;exitDx=0;exitDy=0;exitPerimeter=0;endFill=0;" edge="1" parent="1" source="VoOmi2Fw2u_qr_bo04nq-74" target="VoOmi2Fw2u_qr_bo04nq-75">
          <mxGeometry relative="1" as="geometry">
            <mxPoint x="260" y="350" as="sourcePoint" />
            <mxPoint x="420" y="350" as="targetPoint" />
          </mxGeometry>
        </mxCell>
      </root>
    </mxGraphModel>
  </diagram>
</mxfile>
